# xmcd
#
# Track frame offsets:
#	150
#	18852
#	35603
#	55980
#	77677
#	94622
#	113798
#
# Disc length: 1776 seconds
#
# Revision: 1
# Processed by: cddbd v1.5.2PL0 Copyright (c) Steve Scherf et al.
# Submitted via: audiograbber 1.83.01
#
DISCID=4b06ee07
DTITLE=Jail Job Eve - Bird Of Passage
DYEAR=2015
DGENRE=Bluesrock
TTITLE0=Showtime
TTITLE1=Cut You Loose
TTITLE2=Lonley Death
TTITLE3=Bird Of Passage
TTITLE4=House Of Cards
TTITLE5=My Baby
TTITLE6=Diabolus in Musica
EXTD=
EXTT0=
EXTT1=
EXTT2=
EXTT3=
EXTT4=
EXTT5=
EXTT6=
PLAYORDER=
